<svg width="50" height="49" viewBox="0 0 50 49" fill="none" xmlns="http://www.w3.org/2000/svg">
<path d="M12.4088 48.7179C8.51582 48.7179 5.47445 47.3749 3.28467 44.6886C1.09489 41.8804 0 37.729 0 32.2345C0 26.4958 1.27737 21.0013 3.83212 15.7509C6.50851 10.5006 10.2798 5.31136 15.146 0.183159C15.2677 0.061053 15.4501 0 15.6935 0C16.0583 0 16.3017 0.183151 16.4233 0.549454C16.6667 0.793651 16.7274 1.0989 16.6059 1.46521C13.6862 5.37241 11.6788 9.15751 10.5839 12.8205C9.61071 16.3614 9.12409 20.3296 9.12409 24.7253C9.12409 28.0219 9.54988 30.586 10.4015 32.4176C11.253 34.2491 12.4088 35.8974 13.8686 37.3627L6.93431 38.6447C6.81265 36.569 7.3601 34.9817 8.57664 33.8828C9.91485 32.7838 11.618 32.2345 13.6862 32.2345C16.2409 32.2345 18.1873 32.9671 19.5255 34.4322C20.9854 35.8974 21.7154 37.9121 21.7154 40.4762C21.7154 43.1624 20.8637 45.2381 19.1606 46.7033C17.5791 48.0464 15.3285 48.7179 12.4088 48.7179ZM40.5109 48.7179C36.618 48.7179 33.5767 47.3749 31.3869 44.6886C29.3187 41.8804 28.2846 37.729 28.2846 32.2345C28.2846 26.3736 29.5621 20.8181 32.1168 15.5678C34.6715 10.3175 38.4428 5.18926 43.4306 0.183159C43.5523 0.061053 43.7347 0 43.9781 0C44.3431 0 44.5864 0.183151 44.7081 0.549454C44.9513 0.793651 45.0122 1.0989 44.8905 1.46521C41.9708 5.37241 39.9635 9.15751 38.8686 12.8205C37.8954 16.3614 37.4087 20.3296 37.4087 24.7253C37.4087 28.0219 37.7737 30.6472 38.5036 32.6008C39.3553 34.4322 40.5109 36.0195 41.9708 37.3627L35.219 38.6447C35.0973 36.569 35.6447 34.9817 36.8613 33.8828C38.0778 32.7838 39.781 32.2345 41.9708 32.2345C44.5255 32.2345 46.4721 32.9671 47.8103 34.4322C49.2701 35.8974 50 37.9121 50 40.4762C50 43.1624 49.1485 45.2381 47.4453 46.7033C45.8637 48.0464 43.5523 48.7179 40.5109 48.7179Z" fill="white" fill-opacity="0.8"/>
</svg>
